<?xml version="1.0" encoding="UTF-8" standalone="no"?><!-- Generator: Gravit.io --><svg xmlns="http://www.w3.org/2000/svg" xmlns:xlink="http://www.w3.org/1999/xlink" style="isolation:isolate" viewBox="190.094 111.543 121.906 160.957" width="121.906pt" height="160.957pt"><g><path d=" M 265.649 221.226 C 266.76 221.916 267.449 223.208 267.454 224.609 C 267.458 226.009 266.776 227.308 265.67 228.006 C 250.997 237.266 210.547 262.802 195.999 271.983 C 194.902 272.674 193.554 272.671 192.458 271.98 C 191.362 271.284 190.686 270.002 190.682 268.611 C 190.627 250.277 190.474 199.512 190.418 181.178 C 190.414 179.788 191.085 178.499 192.174 177.795 C 193.266 177.091 194.614 177.082 195.715 177.766 C 210.317 186.84 250.923 212.07 265.649 221.224 L 265.649 221.226 Z " fill-rule="evenodd" fill="rgb(0,0,0)"/><path d=" M 265.681 158.007 C 266.786 158.736 267.463 160.083 267.452 161.535 C 267.442 162.985 266.745 164.321 265.63 165.03 C 250.836 174.43 210.051 200.351 195.384 209.671 C 194.278 210.373 192.927 210.352 191.837 209.622 C 190.747 208.887 190.083 207.55 190.094 206.109 C 190.233 187.121 190.618 134.543 190.757 115.554 C 190.768 114.115 191.453 112.789 192.552 112.074 C 193.652 111.359 195.003 111.367 196.099 112.089 C 210.627 121.677 251.029 148.334 265.681 158.005 L 265.681 158.007 Z " fill-rule="evenodd" fill="rgb(195,207,217)"/><path d="M 281.196 124.96 L 281.196 124.96 C 284.136 124.96 286.523 127.459 286.523 130.536 L 286.523 266.924 C 286.523 270.002 284.136 272.5 281.196 272.5 L 281.196 272.5 C 278.257 272.5 275.87 270.002 275.87 266.924 L 275.87 130.536 C 275.87 127.459 278.257 124.96 281.196 124.96 Z" style="stroke:none;fill:#C3CFD9;stroke-miterlimit:10;"/><rect x="250.393" y="118.356" width="61.607" height="13.208" transform="matrix(1,0,0,1,0,0)" fill="rgb(195,207,217)"/></g></svg>